# xmcd CD database file
#
# Track frame offsets:
#	150
#	15657
#	28764
#	45787
#	61750
#	84803
#	97872
#	113985
#	128167
#	141742
#	156428
#	172311
#	192907
#
# Disc length: 2876 seconds
#
# Revision: 0
# Processed by: cddbd v1.5.1PL2 Copyright (c) Steve Scherf et al.
# Submitted via: CDex 1.51
#
DISCID=a80b3a0d
DTITLE=Jo Bohnsack - A Tribute To My Heros
DYEAR=2004
DGENRE=Blues
TTITLE0=Funky Billy
TTITLE1=Nothing from Nothing leaves Nothing
TTITLE2=Sranded Withe Man
TTITLE3=You are my Sunshine
TTITLE4=New Orleans Punch
TTITLE5=Mean Old World
TTITLE6=Bad Case of Love
TTITLE7=Hm Boogie
TTITLE8=No One
TTITLE9=I got a Woman
TTITLE10=I got the Blues
TTITLE11=Laundromat Blues
TTITLE12=To know you
EXTD=YEAR: 2004
EXTT0=
EXTT1=
EXTT2=
EXTT3=
EXTT4=
EXTT5=
EXTT6=
EXTT7=
EXTT8=
EXTT9=
EXTT10=
EXTT11=
EXTT12=
PLAYORDER=
